<?xml version="1.0" encoding="UTF-8"?>
<svg id="Layer_2" data-name="Layer 2" xmlns="http://www.w3.org/2000/svg" xmlns:xlink="http://www.w3.org/1999/xlink" viewBox="0 0 470 1080">
  <defs>
    <style>
      .cls-1 {
        fill: #fff;
      }

      .cls-2 {
        fill: url(#linear-gradient);
      }
    </style>
    <linearGradient id="linear-gradient" x1="235" y1="1080" x2="235" y2="0" gradientUnits="userSpaceOnUse">
      <stop offset=".48" stop-color="#68c0f2"/>
      <stop offset=".57" stop-color="#72c5f3"/>
      <stop offset=".74" stop-color="#90d3f6"/>
      <stop offset=".97" stop-color="#bfeafb"/>
      <stop offset="1" stop-color="#c7eefc"/>
    </linearGradient>
  </defs>
  <g id="Mobile_-_470" data-name="Mobile - 470">
    <g id="Water">
      <polyline class="cls-2" points="470 1080 0 1080 0 0 470 0"/>
      <g id="Triple">
        <circle class="cls-1" cx="414.91" cy="61.1" r="34.1"/>
        <circle class="cls-1" cx="364.58" cy="109.24" r="22.43"/>
        <circle class="cls-1" cx="430.59" cy="120.18" r="11.49"/>
        <circle class="cls-1" cx="48.91" cy="985.1" r="34.1"/>
        <path class="cls-1" d="M21.01,1033.24c0,11.91-9.29,21.65-21.01,22.38v-44.76c11.72.73,21.01,10.47,21.01,22.38Z"/>
        <circle class="cls-1" cx="64.59" cy="1044.18" r="11.49"/>
        <path class="cls-1" d="M470,765.97v66.26c-2.59.64-5.3.97-8.09.97-18.84,0-34.1-15.27-34.1-34.1s15.26-34.1,34.1-34.1c2.79,0,5.5.33,8.09.97Z"/>
        <circle class="cls-1" cx="411.58" cy="847.24" r="22.43"/>
        <path class="cls-1" d="M470,849.56v17.25c-2.39-2.11-3.9-5.19-3.9-8.63s1.51-6.52,3.9-8.62Z"/>
      </g>
    </g>
  </g>
</svg>